<?xml version="1.0" encoding="UTF-8"?>
<svg xmlns="http://www.w3.org/2000/svg" xmlns:xlink="http://www.w3.org/1999/xlink" width="1920pt" height="1080pt" viewBox="0 0 1920 1080" version="1.1">
<defs>
<g>
<symbol overflow="visible" id="glyph0-0">
<path style="stroke:none;" d="M 0.65625 2.359375 L 0.65625 -9.390625 L 7.328125 -9.390625 L 7.328125 2.359375 Z M 1.40625 1.609375 L 6.59375 1.609375 L 6.59375 -8.65625 L 1.40625 -8.65625 Z "/>
</symbol>
<symbol overflow="visible" id="glyph0-1">
<path style="stroke:none;" d="M 2.484375 -0.6875 L 3.71875 -0.6875 L 3.578125 0 L -0.203125 0 L -0.078125 -0.6875 L 1.15625 -0.6875 L 2.78125 -9.015625 L 1.546875 -9.015625 L 1.671875 -9.71875 L 5.46875 -9.71875 L 5.34375 -9.015625 L 4.09375 -9.015625 Z "/>
</symbol>
<symbol overflow="visible" id="glyph0-2">
<path style="stroke:none;" d="M 1.78125 -6.21875 L 0.734375 -6.21875 L 0.859375 -6.921875 L 1.921875 -6.921875 L 2.34375 -9.0625 L 3.546875 -9.0625 L 3.125 -6.921875 L 5.375 -6.921875 L 5.234375 -6.21875 L 2.984375 -6.21875 L 2.140625 -1.828125 C 2.066406 -1.484375 2.03125 -1.210938 2.03125 -1.015625 C 2.03125 -0.878906 2.046875 -0.773438 2.078125 -0.703125 C 2.160156 -0.535156 2.351562 -0.453125 2.65625 -0.453125 C 2.96875 -0.453125 3.210938 -0.546875 3.390625 -0.734375 C 3.578125 -0.921875 3.710938 -1.21875 3.796875 -1.625 L 4.703125 -1.625 C 4.546875 -1 4.285156 -0.539062 3.921875 -0.25 C 3.554688 0.0390625 3.0625 0.1875 2.4375 0.1875 C 1.75 0.1875 1.285156 0.0351562 1.046875 -0.265625 C 0.910156 -0.453125 0.84375 -0.722656 0.84375 -1.078125 C 0.84375 -1.296875 0.875 -1.546875 0.9375 -1.828125 Z "/>
</symbol>
<symbol overflow="visible" id="glyph0-3">
<path style="stroke:none;" d="M 4.84375 -1.078125 C 4.257812 -0.234375 3.503906 0.1875 2.578125 0.1875 C 1.816406 0.1875 1.242188 -0.0664062 0.859375 -0.578125 C 0.585938 -0.941406 0.453125 -1.382812 0.453125 -1.90625 C 0.453125 -2.132812 0.472656 -2.367188 0.515625 -2.609375 C 0.816406 -4.140625 1.5 -5.300781 2.5625 -6.09375 C 3.46875 -6.769531 4.472656 -7.109375 5.578125 -7.109375 C 6.304688 -7.109375 6.796875 -7.046875 7.046875 -6.921875 L 5.84375 -0.6875 L 6.875 -0.6875 L 6.734375 0 L 4.640625 0 Z M 1.71875 -1.953125 C 1.71875 -1.023438 2.164062 -0.5625 3.0625 -0.5625 C 3.601562 -0.5625 4.054688 -0.78125 4.421875 -1.21875 C 4.796875 -1.65625 5.066406 -2.289062 5.234375 -3.125 L 5.84375 -6.25 C 5.84375 -6.375 5.671875 -6.4375 5.328125 -6.4375 C 4.492188 -6.4375 3.753906 -6.113281 3.109375 -5.46875 C 2.460938 -4.8125 2.023438 -3.890625 1.796875 -2.703125 C 1.742188 -2.421875 1.71875 -2.171875 1.71875 -1.953125 Z "/>
</symbol>
<symbol overflow="visible" id="glyph0-4">
<path style="stroke:none;" d="M 1.875 -0.6875 L 3.015625 -0.6875 L 2.890625 0 L 0.546875 0 L 2.390625 -9.4375 L 1.234375 -9.4375 L 1.359375 -10.125 L 3.71875 -10.125 Z "/>
</symbol>
<symbol overflow="visible" id="glyph0-5">
<path style="stroke:none;" d="M 2.109375 -9.0625 C 2.140625 -9.257812 2.242188 -9.429688 2.421875 -9.578125 C 2.597656 -9.734375 2.785156 -9.8125 2.984375 -9.8125 C 3.179688 -9.8125 3.34375 -9.738281 3.46875 -9.59375 C 3.550781 -9.476562 3.59375 -9.347656 3.59375 -9.203125 C 3.59375 -9.160156 3.585938 -9.113281 3.578125 -9.0625 C 3.535156 -8.863281 3.425781 -8.691406 3.25 -8.546875 C 3.082031 -8.398438 2.894531 -8.328125 2.6875 -8.328125 C 2.488281 -8.328125 2.332031 -8.398438 2.21875 -8.546875 C 2.132812 -8.648438 2.09375 -8.773438 2.09375 -8.921875 C 2.09375 -8.960938 2.097656 -9.007812 2.109375 -9.0625 Z M 2 -0.6875 L 3.140625 -0.6875 L 3 0 L 0.671875 0 L 1.875 -6.21875 L 0.734375 -6.21875 L 0.875 -6.921875 L 3.21875 -6.921875 Z "/>
</symbol>
<symbol overflow="visible" id="glyph0-6">
<path style="stroke:none;" d="M 6.59375 -2.078125 C 6.28125 -1.335938 5.84375 -0.773438 5.28125 -0.390625 C 4.71875 -0.00390625 4.054688 0.1875 3.296875 0.1875 C 2.296875 0.1875 1.550781 -0.144531 1.0625 -0.8125 C 0.726562 -1.269531 0.5625 -1.832031 0.5625 -2.5 C 0.5625 -2.800781 0.59375 -3.125 0.65625 -3.46875 C 0.875 -4.570312 1.351562 -5.453125 2.09375 -6.109375 C 2.832031 -6.773438 3.707031 -7.109375 4.71875 -7.109375 C 5.15625 -7.109375 5.582031 -7.054688 6 -6.953125 C 6.414062 -6.847656 6.816406 -6.691406 7.203125 -6.484375 L 6.875 -4.71875 L 6.171875 -4.71875 C 6.171875 -4.78125 6.171875 -4.835938 6.171875 -4.890625 C 6.171875 -5.410156 6.0625 -5.796875 5.84375 -6.046875 C 5.582031 -6.328125 5.171875 -6.46875 4.609375 -6.46875 C 3.960938 -6.46875 3.425781 -6.210938 3 -5.703125 C 2.570312 -5.203125 2.257812 -4.457031 2.0625 -3.46875 C 1.976562 -3.007812 1.9375 -2.601562 1.9375 -2.25 C 1.9375 -1.832031 1.992188 -1.484375 2.109375 -1.203125 C 2.335938 -0.703125 2.78125 -0.453125 3.4375 -0.453125 C 3.945312 -0.453125 4.382812 -0.585938 4.75 -0.859375 C 5.113281 -1.128906 5.40625 -1.535156 5.625 -2.078125 Z "/>
</symbol>
</g>
</defs>
<g id="surface1">
<g style="fill:rgb(100%,100%,100%);fill-opacity:1;">
  <use xlink:href="#glyph0-1" x="30" y="32.375977"/>
  <use xlink:href="#glyph0-2" x="35" y="32.375977"/>
  <use xlink:href="#glyph0-3" x="40" y="32.375977"/>
  <use xlink:href="#glyph0-4" x="48" y="32.375977"/>
  <use xlink:href="#glyph0-5" x="52" y="32.375977"/>
  <use xlink:href="#glyph0-6" x="56" y="32.375977"/>
</g>
</g>
</svg>
